<svg width="24" height="24" viewBox="0 0 24 24" fill="none" xmlns="http://www.w3.org/2000/svg">
<rect opacity="0.01" width="24" height="24" fill="white"/>
<path fill-rule="evenodd" clip-rule="evenodd" d="M21.4936 6.23867C21.3848 3.89122 19.4478 2.022 17.0734 2.022H12.1894L11.9806 2.02683C9.62757 2.13579 7.7544 4.07659 7.7544 6.456V7.389H9.2544V6.456L9.25938 6.28356C9.3486 4.74298 10.6257 3.522 12.1894 3.522H17.0734L17.2453 3.52697C18.781 3.61591 19.9984 4.88892 19.9984 6.447V17.587L19.9934 17.7594C19.9041 19.3 18.6263 20.522 17.0634 20.522H12.1784L12.0066 20.517C10.472 20.428 9.2544 19.1544 9.2544 17.597V16.655H7.7544V17.597L7.7595 17.8114C7.87132 20.1552 9.80717 22.022 12.1784 22.022H17.0634L17.2722 22.0172C19.6245 21.9082 21.4984 19.9662 21.4984 17.587V6.447L21.4936 6.23867ZM12.3556 9.63722L13.414 8.57439L16.8756 12.0218L13.414 15.4692L12.3556 14.4064L13.9964 12.7718H3.7715V11.2718H13.9961L12.3556 9.63722Z" fill="black"/>
</svg>
